<svg width="541" height="337" viewBox="0 0 541 337" fill="none" xmlns="http://www.w3.org/2000/svg">
<path fill-rule="evenodd" clip-rule="evenodd" d="M108.412 364.659C99.8997 364.659 95.1002 360.048 95.1002 351.837V207.556L-15.6815 21.1497C-21.0244 11.9275 -16.7682 5.76953 -6.656 5.76953H61.5336C68.9895 5.76953 73.789 8.86341 76.9585 14.9917L137.722 126.936L198.426 14.9917C201.595 8.86341 206.395 5.76953 213.851 5.76953H282.04C292.153 5.76953 296.409 11.9275 291.096 21.1497L180.315 207.556V364.332" fill="#E9E9E9"/>
<path fill-rule="evenodd" clip-rule="evenodd" d="M459.134 249.334C459.134 214.876 432.181 192.043 397.168 192.043C362.155 192.043 335.231 214.876 335.231 249.334C335.231 283.792 362.155 306.595 397.168 306.595C432.181 306.595 459.134 283.792 459.134 249.334ZM254.473 249.335C254.473 176.99 317.992 121.13 397.181 121.13C476.37 121.13 539.919 176.99 539.919 249.335C539.919 321.679 476.37 377.48 397.181 377.48C317.992 377.48 254.473 321.679 254.473 249.335Z" fill="#E9E9E9"/>
<path fill-rule="evenodd" clip-rule="evenodd" d="M358.252 56.2396V19.3869C358.252 10.6578 362.981 5.76953 371.391 5.76953H526.76C535.17 5.76953 539.899 10.6578 539.899 19.3869V56.2396C539.899 64.9369 535.17 69.8569 526.76 69.8569H371.391C362.981 69.8569 358.252 64.9369 358.252 56.2396Z" fill="#E9E9E9"/>
</svg>
