<svg width="18" height="18" viewBox="0 0 18 18" fill="none" xmlns="http://www.w3.org/2000/svg">
<path d="M4.41003 0.875C4.08316 0.875 3.76065 0.9925 3.4919 1.20687L3.45316 1.22625L3.43378 1.24625L1.48066 3.25813L1.50003 3.27688C1.21345 3.5371 1.0104 3.8764 0.916516 4.25193C0.822632 4.62747 0.842123 5.02241 0.97253 5.38688C0.97503 5.39187 0.97003 5.40125 0.97253 5.40625C1.50253 6.9225 2.85753 9.85 5.50378 12.4963C8.16003 15.1525 11.1263 16.4537 12.5938 17.0275H12.6132C12.9809 17.1491 13.3739 17.1734 13.7538 17.098C14.1338 17.0226 14.4877 16.8502 14.7813 16.5975L16.7538 14.625C17.2713 14.1075 17.2713 13.2087 16.7538 12.6912L14.215 10.1525L14.195 10.1131C13.6775 9.59562 12.76 9.59562 12.2419 10.1131L10.9919 11.3631C10.0538 10.9125 9.19095 10.3196 8.43378 9.60563C7.41066 8.62875 6.88815 7.50563 6.69565 7.06625L7.94565 5.81625C8.47065 5.29125 8.48003 4.4175 7.92566 3.9025L7.94503 3.8825L7.88691 3.82437L5.3869 1.24625L5.36753 1.22687L5.32816 1.20687C5.06876 0.995064 4.74491 0.878002 4.41003 0.875ZM4.41003 2.125C4.46112 2.12797 4.50956 2.14876 4.54691 2.18375L7.04691 4.74188L7.10566 4.80063C7.10066 4.79562 7.14191 4.86188 7.06628 4.9375L5.50378 6.5L5.21066 6.77375L5.34815 7.16375C5.34815 7.16375 6.06566 9.08562 7.57441 10.5238L7.71128 10.6406C9.16315 11.9663 10.875 12.6912 10.875 12.6912L11.2657 12.8675L13.1213 11.0113C13.2288 10.9044 13.2088 10.9044 13.3163 11.0113L15.875 13.5712C15.9825 13.6781 15.9825 13.6394 15.875 13.7463L13.9607 15.6606C13.6732 15.9075 13.3675 15.9587 13.0044 15.8369C11.5882 15.28 8.83628 14.0712 6.38253 11.6181C3.90941 9.14437 2.61816 6.33938 2.14503 4.9775C2.0494 4.72312 2.11753 4.3475 2.34003 4.15688L2.37878 4.1175L4.27378 2.18437C4.31071 2.14942 4.35867 2.12843 4.4094 2.125H4.41003Z" fill="white"/>
</svg>
